<svg width="24" height="24" viewBox="0 0 24 24" fill="none" xmlns="http://www.w3.org/2000/svg">
<path d="M15.3075 20.2499C15.1314 20.2505 14.9574 20.2119 14.7983 20.1369C14.6392 20.0619 14.4991 19.9524 14.3881 19.8165L8.51814 12.6893C8.34477 12.4797 8.25 12.2167 8.25 11.9454C8.25 11.6741 8.34477 11.4112 8.51814 11.2016L14.4116 4.17317C14.6117 3.93395 14.8992 3.78352 15.2109 3.75496C15.5226 3.7264 15.8329 3.82206 16.0736 4.02089C16.3143 4.21972 16.4657 4.50544 16.4944 4.81519C16.5232 5.12494 16.4269 5.43335 16.2268 5.67257L10.9581 11.9513L16.2269 18.3288C16.371 18.5008 16.4626 18.7101 16.4908 18.9322C16.5189 19.1542 16.4825 19.3796 16.3857 19.5817C16.289 19.7838 16.1361 19.9542 15.945 20.0726C15.7539 20.191 15.5327 20.2525 15.3075 20.2499Z" fill="#1F1F1F"/>
</svg>
