<svg width="32" height="32" viewBox="0 0 32 32" fill="none" xmlns="http://www.w3.org/2000/svg">
<path d="M26 18.096L16 28L5.99999 18.096C5.3404 17.4541 4.82085 16.6827 4.47406 15.8302C4.12727 14.9776 3.96074 14.0626 3.98498 13.1425C4.00921 12.2225 4.22368 11.3175 4.61487 10.4844C5.00606 9.65135 5.56551 8.90831 6.25798 8.30208C6.95044 7.69585 7.76093 7.23956 8.63841 6.96195C9.51588 6.68434 10.4413 6.59142 11.3565 6.68904C12.2716 6.78666 13.1567 7.07271 13.9558 7.52918C14.755 7.98565 15.451 8.60264 16 9.3413C16.5514 8.608 17.2482 7.9964 18.0468 7.54478C18.8454 7.09316 19.7287 6.81124 20.6412 6.71666C21.5538 6.62209 22.4761 6.7169 23.3504 6.99516C24.2246 7.27342 25.032 7.72914 25.7221 8.33379C26.4121 8.93844 26.9699 9.67902 27.3606 10.5092C27.7512 11.3393 27.9663 12.2411 27.9924 13.1582C28.0185 14.0753 27.855 14.988 27.5122 15.839C27.1693 16.69 26.6545 17.4611 26 18.104" stroke="#939399" stroke-width="2" stroke-linecap="round" stroke-linejoin="round"/>
</svg>
